0
SECTION
2
HEADER
9
$INSUNITS
70
4
9
$ACADVER
1
AC1014
9
$HANDSEED
5
FFFF
0
ENDSEC
0
SECTION
2
TABLES
0
TABLE
2
VPORT
5
8
100
AcDbSymbolTable
0
ENDTAB
0
TABLE
2
LTYPE
5
5
100
AcDbSymbolTable
0
LTYPE
5
14
100
AcDbSymbolTableRecord
100
AcDbLinetypeTableRecord
2
BYBLOCK
70
0
0
LTYPE
5
15
100
AcDbSymbolTableRecord
100
AcDbLinetypeTableRecord
2
BYLAYER
70
0
0
ENDTAB
0
TABLE
2
LAYER
5
2
100
AcDbSymbolTable
70
2
0
LAYER
5
50
100
AcDbSymbolTableRecord
100
AcDbLayerTableRecord
2
0
70
0
6
CONTINUOUS
0
ENDTAB
0
TABLE
2
STYLE
5
3
100
AcDbSymbolTable
70
1
0
STYLE
5
11
100
AcDbSymbolTableRecord
100
AcDbTextStyleTableRecord
2
STANDARD
70
0
0
ENDTAB
0
TABLE
2
VIEW
5
6
100
AcDbSymbolTable
70
0
0
ENDTAB
0
TABLE
2
UCS
5
7
100
AcDbSymbolTable
70
0
0
ENDTAB
0
TABLE
2
APPID
5
9
100
AcDbSymbolTable
70
2
0
APPID
5
12
100
AcDbSymbolTableRecord
100
AcDbRegAppTableRecord
2
ACAD
70
0
0
ENDTAB
0
TABLE
2
DIMSTYLE
5
A
100
AcDbSymbolTable
70
1
0
ENDTAB
0
TABLE
2
BLOCK_RECORD
5
1
100
AcDbSymbolTable
70
1
0
BLOCK_RECORD
5
1F
100
AcDbSymbolTableRecord
100
AcDbBlockTableRecord
2
*MODEL_SPACE
0
BLOCK_RECORD
5
1B
100
AcDbSymbolTableRecord
100
AcDbBlockTableRecord
2
*PAPER_SPACE
0
ENDTAB
0
ENDSEC
0
SECTION
2
BLOCKS
0
BLOCK
5
20
100
AcDbEntity
100
AcDbBlockBegin
2
*MODEL_SPACE
0
ENDBLK
5
21
100
AcDbEntity
100
AcDbBlockEnd
0
BLOCK
5
1C
100
AcDbEntity
100
AcDbBlockBegin
2
*PAPER_SPACE
0
ENDBLK
5
1D
100
AcDbEntity
100
AcDbBlockEnd
0
ENDSEC
0
SECTION
2
ENTITIES
0
LWPOLYLINE
5
100
100
AcDbEntity
8
0
100
AcDbPolyline
90
20
70
1
43
0.0
10
317.5
20
-83.5
10
53.500000000000014
20
-83.5
42
0.41421356237309631
10
51.5
20
-85.5
10
51.499999999477126
20
-127.61404232371106
42
-0.76920735777597726
10
51.500014300832923
20
-140.6125538804788
10
51.5
20
-232.5
42
0.41421356237309503
10
53.500000000000007
20
-234.5
10
402.5
20
-234.50000000000003
42
0.41421356237309503
10
404.5
20
-232.5
10
404.50000000061937
20
-140.61172933709045
42
-0.76939583382390153
10
404.4972244560916
20
-127.61300663360575
10
404.5
20
-85.5
42
0.41421356237309503
10
402.5
20
-83.500000000000014
10
371.5
20
-83.5
42
0.41421356237309503
10
369.49999999999994
20
-85.5
10
369.5
20
-102.825
42
-0.41421356237309503
10
367.5
20
-104.825
10
321.5
20
-104.825
42
-0.41421356237309503
10
319.5
20
-102.825
10
319.5
20
-85.5
42
0.41421356237309503
0
LWPOLYLINE
5
101
100
AcDbEntity
8
0
100
AcDbPolyline
90
2
70
1
43
0.0
10
74.729399999995138
20
-179.00206022982715
42
1.1951963577329803
10
74.729400000012504
20
-179.88793977016974
42
1.19519635771274
0
LWPOLYLINE
5
102
100
AcDbEntity
8
0
100
AcDbPolyline
90
4
70
1
43
0.0
10
313.21800000000002
20
-97.317000000000007
10
314.31799999999998
20
-97.317000000000021
42
-0.99999999999999989
10
314.31799999999998
20
-97.917000000000002
10
313.21800000000002
20
-97.91700000000003
42
-0.99999999999999989
0
LWPOLYLINE
5
103
100
AcDbEntity
8
0
100
AcDbPolyline
90
4
70
1
43
0.0
10
313.21800000000002
20
-88.677000000000007
10
314.31799999999998
20
-88.677000000000007
42
-0.99999999999999989
10
314.31799999999998
20
-89.277000000000001
10
313.21800000000002
20
-89.277000000000001
42
-0.99999999999999989
0
LWPOLYLINE
5
104
100
AcDbEntity
8
0
100
AcDbPolyline
90
4
70
1
43
0.0
10
317.64800000000002
20
-97.317000000000007
10
318.24799999999999
20
-97.317000000000021
42
-0.99999999999999989
10
318.24799999999999
20
-97.917000000000002
10
317.64800000000002
20
-97.91700000000003
42
-0.99999999999999989
0
LWPOLYLINE
5
105
100
AcDbEntity
8
0
100
AcDbPolyline
90
4
70
1
43
0.0
10
317.64800000000002
20
-88.677000000000007
10
318.24799999999999
20
-88.677000000000007
42
-0.99999999999999989
10
318.24799999999999
20
-89.277000000000001
10
317.64800000000002
20
-89.277000000000001
42
-0.99999999999999989
0
CIRCLE
5
106
100
AcDbEntity
8
0
100
AcDbCircle
10
54.5
20
-224.60000000000002
30
0
40
1.3999999999999999
210
0
220
0
230
1
0
CIRCLE
5
107
100
AcDbEntity
8
0
100
AcDbCircle
10
64.917500000000004
20
-224.60000000000002
30
0
40
0.34999999999999998
210
0
220
0
230
1
0
CIRCLE
5
108
100
AcDbEntity
8
0
100
AcDbCircle
10
67.457499999999996
20
-224.60000000000002
30
0
40
0.34999999999999998
210
0
220
0
230
1
0
CIRCLE
5
109
100
AcDbEntity
8
0
100
AcDbCircle
10
88.730000000000018
20
-224.60000000000002
30
0
40
0.34999999999999998
210
0
220
0
230
1
0
CIRCLE
5
110
100
AcDbEntity
8
0
100
AcDbCircle
10
91.27000000000001
20
-224.60000000000002
30
0
40
0.34999999999999998
210
0
220
0
230
1
0
CIRCLE
5
111
100
AcDbEntity
8
0
100
AcDbCircle
10
89.856250000000003
20
-212.55000000000001
30
0
40
1.3999999999999999
210
0
220
0
230
1
0
CIRCLE
5
112
100
AcDbEntity
8
0
100
AcDbCircle
10
101.90625
20
-224.60000000000002
30
0
40
1.3999999999999999
210
0
220
0
230
1
0
CIRCLE
5
113
100
AcDbEntity
8
0
100
AcDbCircle
10
112.5425
20
-224.60000000000002
30
0
40
0.34999999999999998
210
0
220
0
230
1
0
CIRCLE
5
114
100
AcDbEntity
8
0
100
AcDbCircle
10
115.08250000000001
20
-224.60000000000002
30
0
40
0.34999999999999998
210
0
220
0
230
1
0
CIRCLE
5
115
100
AcDbEntity
8
0
100
AcDbCircle
10
132.86250000000001
20
-224.60000000000002
30
0
40
1.3999999999999999
210
0
220
0
230
1
0
CIRCLE
5
116
100
AcDbEntity
8
0
100
AcDbCircle
10
72.131249999999994
20
-205.55000000000004
30
0
40
0.34999999999999998
210
0
220
0
230
1
0
CIRCLE
5
117
100
AcDbEntity
8
0
100
AcDbCircle
10
74.53125
20
-205.55000000000004
30
0
40
0.34999999999999998
210
0
220
0
230
1
0
CIRCLE
5
118
100
AcDbEntity
8
0
100
AcDbCircle
10
94.762500000000003
20
-205.55000000000004
30
0
40
1.3999999999999999
210
0
220
0
230
1
0
CIRCLE
5
119
100
AcDbEntity
8
0
100
AcDbCircle
10
103.0175
20
-205.55000000000004
30
0
40
0.34999999999999998
210
0
220
0
230
1
0
CIRCLE
5
120
100
AcDbEntity
8
0
100
AcDbCircle
10
105.55750000000002
20
-205.55000000000004
30
0
40
0.34999999999999998
210
0
220
0
230
1
0
CIRCLE
5
121
100
AcDbEntity
8
0
100
AcDbCircle
10
122.0675
20
-205.55000000000004
30
0
40
0.34999999999999998
210
0
220
0
230
1
0
CIRCLE
5
122
100
AcDbEntity
8
0
100
AcDbCircle
10
124.60750000000002
20
-205.55000000000004
30
0
40
0.34999999999999998
210
0
220
0
230
1
0
CIRCLE
5
123
100
AcDbEntity
8
0
100
AcDbCircle
10
132.86250000000001
20
-205.55000000000004
30
0
40
1.3999999999999999
210
0
220
0
230
1
0
CIRCLE
5
124
100
AcDbEntity
8
0
100
AcDbCircle
10
155.40500000000003
20
-224.60000000000002
30
0
40
0.34999999999999998
210
0
220
0
230
1
0
CIRCLE
5
125
100
AcDbEntity
8
0
100
AcDbCircle
10
157.94499999999999
20
-224.60000000000002
30
0
40
0.34999999999999998
210
0
220
0
230
1
0
CIRCLE
5
126
100
AcDbEntity
8
0
100
AcDbCircle
10
193.57500000000002
20
-224.60000000000002
30
0
40
0.34999999999999998
210
0
220
0
230
1
0
CIRCLE
5
127
100
AcDbEntity
8
0
100
AcDbCircle
10
195.97499999999999
20
-224.60000000000002
30
0
40
0.34999999999999998
210
0
220
0
230
1
0
CIRCLE
5
128
100
AcDbEntity
8
0
100
AcDbCircle
10
209.0625
20
-224.60000000000002
30
0
40
1.3999999999999999
210
0
220
0
230
1
0
CIRCLE
5
129
100
AcDbEntity
8
0
100
AcDbCircle
10
141.11750000000001
20
-205.55000000000004
30
0
40
0.34999999999999998
210
0
220
0
230
1
0
CIRCLE
5
130
100
AcDbEntity
8
0
100
AcDbCircle
10
143.6575
20
-205.55000000000004
30
0
40
0.34999999999999998
210
0
220
0
230
1
0
CIRCLE
5
131
100
AcDbEntity
8
0
100
AcDbCircle
10
160.16749999999999
20
-205.55000000000004
30
0
40
0.34999999999999998
210
0
220
0
230
1
0
CIRCLE
5
132
100
AcDbEntity
8
0
100
AcDbCircle
10
162.70750000000004
20
-205.55000000000004
30
0
40
0.34999999999999998
210
0
220
0
230
1
0
CIRCLE
5
133
100
AcDbEntity
8
0
100
AcDbCircle
10
179.2175
20
-205.55000000000004
30
0
40
0.34999999999999998
210
0
220
0
230
1
0
CIRCLE
5
134
100
AcDbEntity
8
0
100
AcDbCircle
10
181.75749999999999
20
-205.55000000000004
30
0
40
0.34999999999999998
210
0
220
0
230
1
0
CIRCLE
5
135
100
AcDbEntity
8
0
100
AcDbCircle
10
198.26750000000004
20
-205.55000000000004
30
0
40
0.34999999999999998
210
0
220
0
230
1
0
CIRCLE
5
136
100
AcDbEntity
8
0
100
AcDbCircle
10
200.8075
20
-205.55000000000004
30
0
40
0.34999999999999998
210
0
220
0
230
1
0
CIRCLE
5
137
100
AcDbEntity
8
0
100
AcDbCircle
10
217.31750000000002
20
-205.55000000000004
30
0
40
0.34999999999999998
210
0
220
0
230
1
0
CIRCLE
5
138
100
AcDbEntity
8
0
100
AcDbCircle
10
219.85749999999999
20
-205.55000000000004
30
0
40
0.34999999999999998
210
0
220
0
230
1
0
CIRCLE
5
139
100
AcDbEntity
8
0
100
AcDbCircle
10
66.1875
20
-187.77000000000001
30
0
40
0.34999999999999998
210
0
220
0
230
1
0
CIRCLE
5
140
100
AcDbEntity
8
0
100
AcDbCircle
10
66.1875
20
-185.22999999999999
30
0
40
0.34999999999999998
210
0
220
0
230
1
0
CIRCLE
5
141
100
AcDbEntity
8
0
100
AcDbCircle
10
93.492500000000007
20
-186.50000000000003
30
0
40
0.34999999999999998
210
0
220
0
230
1
0
CIRCLE
5
142
100
AcDbEntity
8
0
100
AcDbCircle
10
96.032500000000013
20
-186.50000000000003
30
0
40
0.34999999999999998
210
0
220
0
230
1
0
CIRCLE
5
143
100
AcDbEntity
8
0
100
AcDbCircle
10
72.268799999999999
20
-179.44500000000002
30
0
40
0.45000000000000007
210
0
220
0
230
1
0
CIRCLE
5
144
100
AcDbEntity
8
0
100
AcDbCircle
10
77.189999999999998
20
-179.44500000000002
30
0
40
0.45000000000000007
210
0
220
0
230
1
0
CIRCLE
5
145
100
AcDbEntity
8
0
100
AcDbCircle
10
79.200000000000003
20
-178.875
30
0
40
0.45000000000000007
210
0
220
0
230
1
0
CIRCLE
5
146
100
AcDbEntity
8
0
100
AcDbCircle
10
81.739999999999995
20
-178.875
30
0
40
0.45000000000000007
210
0
220
0
230
1
0
CIRCLE
5
147
100
AcDbEntity
8
0
100
AcDbCircle
10
104.28750000000001
20
-186.50000000000003
30
0
40
1.3999999999999999
210
0
220
0
230
1
0
CIRCLE
5
148
100
AcDbEntity
8
0
100
AcDbCircle
10
112.5425
20
-186.50000000000003
30
0
40
0.34999999999999998
210
0
220
0
230
1
0
CIRCLE
5
149
100
AcDbEntity
8
0
100
AcDbCircle
10
115.08250000000001
20
-186.50000000000003
30
0
40
0.34999999999999998
210
0
220
0
230
1
0
CIRCLE
5
150
100
AcDbEntity
8
0
100
AcDbCircle
10
131.5925
20
-186.50000000000003
30
0
40
0.34999999999999998
210
0
220
0
230
1
0
CIRCLE
5
151
100
AcDbEntity
8
0
100
AcDbCircle
10
134.13249999999999
20
-186.50000000000003
30
0
40
0.34999999999999998
210
0
220
0
230
1
0
CIRCLE
5
152
100
AcDbEntity
8
0
100
AcDbCircle
10
64.917500000000004
20
-167.45000000000002
30
0
40
0.34999999999999998
210
0
220
0
230
1
0
CIRCLE
5
153
100
AcDbEntity
8
0
100
AcDbCircle
10
67.457499999999996
20
-167.45000000000002
30
0
40
0.34999999999999998
210
0
220
0
230
1
0
CIRCLE
5
154
100
AcDbEntity
8
0
100
AcDbCircle
10
78.09375
20
-167.45000000000002
30
0
40
1.3999999999999999
210
0
220
0
230
1
0
CIRCLE
5
155
100
AcDbEntity
8
0
100
AcDbCircle
10
88.730000000000018
20
-167.45000000000002
30
0
40
0.34999999999999998
210
0
220
0
230
1
0
CIRCLE
5
156
100
AcDbEntity
8
0
100
AcDbCircle
10
91.27000000000001
20
-167.45000000000002
30
0
40
0.34999999999999998
210
0
220
0
230
1
0
CIRCLE
5
157
100
AcDbEntity
8
0
100
AcDbCircle
10
107.78
20
-167.45000000000002
30
0
40
0.34999999999999998
210
0
220
0
230
1
0
CIRCLE
5
158
100
AcDbEntity
8
0
100
AcDbCircle
10
110.31999999999999
20
-167.45000000000002
30
0
40
0.34999999999999998
210
0
220
0
230
1
0
CIRCLE
5
159
100
AcDbEntity
8
0
100
AcDbCircle
10
126.83
20
-167.45000000000002
30
0
40
0.34999999999999998
210
0
220
0
230
1
0
CIRCLE
5
160
100
AcDbEntity
8
0
100
AcDbCircle
10
129.37
20
-167.45000000000002
30
0
40
0.34999999999999998
210
0
220
0
230
1
0
CIRCLE
5
161
100
AcDbEntity
8
0
100
AcDbCircle
10
150.64250000000001
20
-186.50000000000003
30
0
40
0.34999999999999998
210
0
220
0
230
1
0
CIRCLE
5
162
100
AcDbEntity
8
0
100
AcDbCircle
10
153.1825
20
-186.50000000000003
30
0
40
0.34999999999999998
210
0
220
0
230
1
0
CIRCLE
5
163
100
AcDbEntity
8
0
100
AcDbCircle
10
169.6925
20
-186.50000000000003
30
0
40
0.34999999999999998
210
0
220
0
230
1
0
CIRCLE
5
164
100
AcDbEntity
8
0
100
AcDbCircle
10
172.23250000000002
20
-186.50000000000003
30
0
40
0.34999999999999998
210
0
220
0
230
1
0
CIRCLE
5
165
100
AcDbEntity
8
0
100
AcDbCircle
10
188.74250000000001
20
-186.50000000000003
30
0
40
0.34999999999999998
210
0
220
0
230
1
0
CIRCLE
5
166
100
AcDbEntity
8
0
100
AcDbCircle
10
191.28250000000003
20
-186.50000000000003
30
0
40
0.34999999999999998
210
0
220
0
230
1
0
CIRCLE
5
167
100
AcDbEntity
8
0
100
AcDbCircle
10
199.53749999999999
20
-186.50000000000003
30
0
40
1.3999999999999999
210
0
220
0
230
1
0
CIRCLE
5
168
100
AcDbEntity
8
0
100
AcDbCircle
10
207.79250000000002
20
-186.50000000000003
30
0
40
0.34999999999999998
210
0
220
0
230
1
0
CIRCLE
5
169
100
AcDbEntity
8
0
100
AcDbCircle
10
210.33250000000004
20
-186.50000000000003
30
0
40
0.34999999999999998
210
0
220
0
230
1
0
CIRCLE
5
170
100
AcDbEntity
8
0
100
AcDbCircle
10
226.84250000000003
20
-186.50000000000003
30
0
40
0.34999999999999998
210
0
220
0
230
1
0
CIRCLE
5
171
100
AcDbEntity
8
0
100
AcDbCircle
10
145.88
20
-167.45000000000002
30
0
40
0.34999999999999998
210
0
220
0
230
1
0
CIRCLE
5
172
100
AcDbEntity
8
0
100
AcDbCircle
10
148.41999999999999
20
-167.45000000000002
30
0
40
0.34999999999999998
210
0
220
0
230
1
0
CIRCLE
5
173
100
AcDbEntity
8
0
100
AcDbCircle
10
156.67500000000001
20
-167.45000000000002
30
0
40
1.3999999999999999
210
0
220
0
230
1
0
CIRCLE
5
174
100
AcDbEntity
8
0
100
AcDbCircle
10
164.93000000000001
20
-167.45000000000002
30
0
40
0.34999999999999998
210
0
220
0
230
1
0
CIRCLE
5
175
100
AcDbEntity
8
0
100
AcDbCircle
10
167.47
20
-167.45000000000002
30
0
40
0.34999999999999998
210
0
220
0
230
1
0
CIRCLE
5
176
100
AcDbEntity
8
0
100
AcDbCircle
10
183.97999999999999
20
-167.45000000000002
30
0
40
0.34999999999999998
210
0
220
0
230
1
0
CIRCLE
5
177
100
AcDbEntity
8
0
100
AcDbCircle
10
186.52000000000001
20
-167.45000000000002
30
0
40
0.34999999999999998
210
0
220
0
230
1
0
CIRCLE
5
178
100
AcDbEntity
8
0
100
AcDbCircle
10
203.03
20
-167.45000000000002
30
0
40
0.34999999999999998
210
0
220
0
230
1
0
CIRCLE
5
179
100
AcDbEntity
8
0
100
AcDbCircle
10
205.57000000000002
20
-167.45000000000002
30
0
40
0.34999999999999998
210
0
220
0
230
1
0
CIRCLE
5
180
100
AcDbEntity
8
0
100
AcDbCircle
10
222.08000000000001
20
-167.45000000000002
30
0
40
0.34999999999999998
210
0
220
0
230
1
0
CIRCLE
5
181
100
AcDbEntity
8
0
100
AcDbCircle
10
224.62000000000003
20
-167.45000000000002
30
0
40
0.34999999999999998
210
0
220
0
230
1
0
CIRCLE
5
182
100
AcDbEntity
8
0
100
AcDbCircle
10
231.60499999999999
20
-224.60000000000002
30
0
40
0.34999999999999998
210
0
220
0
230
1
0
CIRCLE
5
183
100
AcDbEntity
8
0
100
AcDbCircle
10
234.14500000000004
20
-224.60000000000002
30
0
40
0.34999999999999998
210
0
220
0
230
1
0
CIRCLE
5
184
100
AcDbEntity
8
0
100
AcDbCircle
10
274.46749999999997
20
-224.60000000000002
30
0
40
0.34999999999999998
210
0
220
0
230
1
0
CIRCLE
5
185
100
AcDbEntity
8
0
100
AcDbCircle
10
277.00749999999999
20
-224.60000000000002
30
0
40
0.34999999999999998
210
0
220
0
230
1
0
CIRCLE
5
186
100
AcDbEntity
8
0
100
AcDbCircle
10
287.64375000000001
20
-224.60000000000002
30
0
40
1.3999999999999999
210
0
220
0
230
1
0
CIRCLE
5
187
100
AcDbEntity
8
0
100
AcDbCircle
10
298.27999999999997
20
-224.60000000000002
30
0
40
0.34999999999999998
210
0
220
0
230
1
0
CIRCLE
5
188
100
AcDbEntity
8
0
100
AcDbCircle
10
300.81999999999999
20
-224.60000000000002
30
0
40
0.34999999999999998
210
0
220
0
230
1
0
CIRCLE
5
189
100
AcDbEntity
8
0
100
AcDbCircle
10
236.36750000000004
20
-205.55000000000004
30
0
40
0.34999999999999998
210
0
220
0
230
1
0
CIRCLE
5
190
100
AcDbEntity
8
0
100
AcDbCircle
10
238.9075
20
-205.55000000000004
30
0
40
0.34999999999999998
210
0
220
0
230
1
0
CIRCLE
5
191
100
AcDbEntity
8
0
100
AcDbCircle
10
247.16250000000002
20
-205.55000000000004
30
0
40
1.3999999999999999
210
0
220
0
230
1
0
CIRCLE
5
192
100
AcDbEntity
8
0
100
AcDbCircle
10
255.41750000000002
20
-205.55000000000004
30
0
40
0.34999999999999998
210
0
220
0
230
1
0
CIRCLE
5
193
100
AcDbEntity
8
0
100
AcDbCircle
10
257.95749999999998
20
-205.55000000000004
30
0
40
0.34999999999999998
210
0
220
0
230
1
0
CIRCLE
5
194
100
AcDbEntity
8
0
100
AcDbCircle
10
274.46749999999997
20
-205.55000000000004
30
0
40
0.34999999999999998
210
0
220
0
230
1
0
CIRCLE
5
195
100
AcDbEntity
8
0
100
AcDbCircle
10
277.00749999999999
20
-205.55000000000004
30
0
40
0.34999999999999998
210
0
220
0
230
1
0
CIRCLE
5
196
100
AcDbEntity
8
0
100
AcDbCircle
10
310.25625000000002
20
-205.55000000000004
30
0
40
0.34999999999999998
210
0
220
0
230
1
0
CIRCLE
5
197
100
AcDbEntity
8
0
100
AcDbCircle
10
312.65625
20
-205.55000000000004
30
0
40
0.34999999999999998
210
0
220
0
230
1
0
CIRCLE
5
198
100
AcDbEntity
8
0
100
AcDbCircle
10
299.69375000000002
20
-193.5
30
0
40
1.3999999999999999
210
0
220
0
230
1
0
CIRCLE
5
199
100
AcDbEntity
8
0
100
AcDbCircle
10
322.09249999999997
20
-224.60000000000002
30
0
40
0.34999999999999998
210
0
220
0
230
1
0
CIRCLE
5
200
100
AcDbEntity
8
0
100
AcDbCircle
10
324.63250000000005
20
-224.60000000000002
30
0
40
0.34999999999999998
210
0
220
0
230
1
0
CIRCLE
5
201
100
AcDbEntity
8
0
100
AcDbCircle
10
342.41000000000008
20
-224.60000000000002
30
0
40
1.3999999999999999
210
0
220
0
230
1
0
CIRCLE
5
202
100
AcDbEntity
8
0
100
AcDbCircle
10
355.43000000000001
20
-224.60000000000002
30
0
40
0.34999999999999998
210
0
220
0
230
1
0
CIRCLE
5
203
100
AcDbEntity
8
0
100
AcDbCircle
10
357.97000000000003
20
-224.60000000000002
30
0
40
0.34999999999999998
210
0
220
0
230
1
0
CIRCLE
5
204
100
AcDbEntity
8
0
100
AcDbCircle
10
374.48000000000002
20
-224.60000000000002
30
0
40
0.34999999999999998
210
0
220
0
230
1
0
CIRCLE
5
205
100
AcDbEntity
8
0
100
AcDbCircle
10
377.01999999999998
20
-224.60000000000002
30
0
40
0.34999999999999998
210
0
220
0
230
1
0
CIRCLE
5
206
100
AcDbEntity
8
0
100
AcDbCircle
10
385.27500000000003
20
-224.60000000000002
30
0
40
1.3999999999999999
210
0
220
0
230
1
0
CIRCLE
5
207
100
AcDbEntity
8
0
100
AcDbCircle
10
393.53000000000003
20
-224.60000000000002
30
0
40
0.34999999999999998
210
0
220
0
230
1
0
CIRCLE
5
208
100
AcDbEntity
8
0
100
AcDbCircle
10
396.06999999999999
20
-224.60000000000002
30
0
40
0.34999999999999998
210
0
220
0
230
1
0
CIRCLE
5
209
100
AcDbEntity
8
0
100
AcDbCircle
10
374.48000000000002
20
-205.55000000000004
30
0
40
0.34999999999999998
210
0
220
0
230
1
0
CIRCLE
5
210
100
AcDbEntity
8
0
100
AcDbCircle
10
377.01999999999998
20
-205.55000000000004
30
0
40
0.34999999999999998
210
0
220
0
230
1
0
CIRCLE
5
211
100
AcDbEntity
8
0
100
AcDbCircle
10
394.80000000000007
20
-205.55000000000004
30
0
40
1.3999999999999999
210
0
220
0
230
1
0
CIRCLE
5
212
100
AcDbEntity
8
0
100
AcDbCircle
10
229.38249999999999
20
-186.50000000000003
30
0
40
0.34999999999999998
210
0
220
0
230
1
0
CIRCLE
5
213
100
AcDbEntity
8
0
100
AcDbCircle
10
245.89250000000004
20
-186.50000000000003
30
0
40
0.34999999999999998
210
0
220
0
230
1
0
CIRCLE
5
214
100
AcDbEntity
8
0
100
AcDbCircle
10
248.4325
20
-186.50000000000003
30
0
40
0.34999999999999998
210
0
220
0
230
1
0
CIRCLE
5
215
100
AcDbEntity
8
0
100
AcDbCircle
10
264.9425
20
-186.50000000000003
30
0
40
0.34999999999999998
210
0
220
0
230
1
0
CIRCLE
5
216
100
AcDbEntity
8
0
100
AcDbCircle
10
267.48250000000002
20
-186.50000000000003
30
0
40
0.34999999999999998
210
0
220
0
230
1
0
CIRCLE
5
217
100
AcDbEntity
8
0
100
AcDbCircle
10
283.99250000000001
20
-186.50000000000003
30
0
40
0.34999999999999998
210
0
220
0
230
1
0
CIRCLE
5
218
100
AcDbEntity
8
0
100
AcDbCircle
10
286.53250000000003
20
-186.50000000000003
30
0
40
0.34999999999999998
210
0
220
0
230
1
0
CIRCLE
5
219
100
AcDbEntity
8
0
100
AcDbCircle
10
294.78750000000002
20
-186.50000000000003
30
0
40
1.3999999999999999
210
0
220
0
230
1
0
CIRCLE
5
220
100
AcDbEntity
8
0
100
AcDbCircle
10
315.01875000000001
20
-186.50000000000003
30
0
40
0.34999999999999998
210
0
220
0
230
1
0
CIRCLE
5
221
100
AcDbEntity
8
0
100
AcDbCircle
10
241.13
20
-167.45000000000002
30
0
40
0.34999999999999998
210
0
220
0
230
1
0
CIRCLE
5
222
100
AcDbEntity
8
0
100
AcDbCircle
10
243.67000000000002
20
-167.45000000000002
30
0
40
0.34999999999999998
210
0
220
0
230
1
0
CIRCLE
5
223
100
AcDbEntity
8
0
100
AcDbCircle
10
251.92500000000001
20
-167.45000000000002
30
0
40
1.3999999999999999
210
0
220
0
230
1
0
CIRCLE
5
224
100
AcDbEntity
8
0
100
AcDbCircle
10
260.18000000000001
20
-167.45000000000002
30
0
40
0.34999999999999998
210
0
220
0
230
1
0
CIRCLE
5
225
100
AcDbEntity
8
0
100
AcDbCircle
10
262.72000000000003
20
-167.45000000000002
30
0
40
0.34999999999999998
210
0
220
0
230
1
0
CIRCLE
5
226
100
AcDbEntity
8
0
100
AcDbCircle
10
279.23000000000002
20
-167.45000000000002
30
0
40
0.34999999999999998
210
0
220
0
230
1
0
CIRCLE
5
227
100
AcDbEntity
8
0
100
AcDbCircle
10
281.76999999999998
20
-167.45000000000002
30
0
40
0.34999999999999998
210
0
220
0
230
1
0
CIRCLE
5
228
100
AcDbEntity
8
0
100
AcDbCircle
10
298.27999999999997
20
-167.45000000000002
30
0
40
0.34999999999999998
210
0
220
0
230
1
0
CIRCLE
5
229
100
AcDbEntity
8
0
100
AcDbCircle
10
300.81999999999999
20
-167.45000000000002
30
0
40
0.34999999999999998
210
0
220
0
230
1
0
CIRCLE
5
230
100
AcDbEntity
8
0
100
AcDbCircle
10
317.41874999999999
20
-186.50000000000003
30
0
40
0.34999999999999998
210
0
220
0
230
1
0
CIRCLE
5
231
100
AcDbEntity
8
0
100
AcDbCircle
10
322.09249999999997
20
-167.45000000000002
30
0
40
0.34999999999999998
210
0
220
0
230
1
0
CIRCLE
5
232
100
AcDbEntity
8
0
100
AcDbCircle
10
324.63250000000005
20
-167.45000000000002
30
0
40
0.34999999999999998
210
0
220
0
230
1
0
CIRCLE
5
233
100
AcDbEntity
8
0
100
AcDbCircle
10
355.43000000000001
20
-167.45000000000002
30
0
40
0.34999999999999998
210
0
220
0
230
1
0
CIRCLE
5
234
100
AcDbEntity
8
0
100
AcDbCircle
10
357.97000000000003
20
-167.45000000000002
30
0
40
0.34999999999999998
210
0
220
0
230
1
0
CIRCLE
5
235
100
AcDbEntity
8
0
100
AcDbCircle
10
374.48000000000002
20
-167.45000000000002
30
0
40
0.34999999999999998
210
0
220
0
230
1
0
CIRCLE
5
236
100
AcDbEntity
8
0
100
AcDbCircle
10
377.01999999999998
20
-167.45000000000002
30
0
40
0.34999999999999998
210
0
220
0
230
1
0
CIRCLE
5
237
100
AcDbEntity
8
0
100
AcDbCircle
10
385.27500000000003
20
-167.45000000000002
30
0
40
1.3999999999999999
210
0
220
0
230
1
0
CIRCLE
5
238
100
AcDbEntity
8
0
100
AcDbCircle
10
393.53000000000003
20
-167.45000000000002
30
0
40
0.34999999999999998
210
0
220
0
230
1
0
CIRCLE
5
239
100
AcDbEntity
8
0
100
AcDbCircle
10
396.06999999999999
20
-167.45000000000002
30
0
40
0.34999999999999998
210
0
220
0
230
1
0
CIRCLE
5
240
100
AcDbEntity
8
0
100
AcDbCircle
10
60.155000000000001
20
-148.40000000000001
30
0
40
0.34999999999999998
210
0
220
0
230
1
0
CIRCLE
5
241
100
AcDbEntity
8
0
100
AcDbCircle
10
62.695000000000007
20
-148.40000000000001
30
0
40
0.34999999999999998
210
0
220
0
230
1
0
CIRCLE
5
242
100
AcDbEntity
8
0
100
AcDbCircle
10
70.950000000000003
20
-148.40000000000001
30
0
40
1.3999999999999999
210
0
220
0
230
1
0
CIRCLE
5
243
100
AcDbEntity
8
0
100
AcDbCircle
10
79.205000000000013
20
-148.40000000000001
30
0
40
0.34999999999999998
210
0
220
0
230
1
0
CIRCLE
5
244
100
AcDbEntity
8
0
100
AcDbCircle
10
81.745000000000005
20
-148.40000000000001
30
0
40
0.34999999999999998
210
0
220
0
230
1
0
CIRCLE
5
245
100
AcDbEntity
8
0
100
AcDbCircle
10
98.254999999999995
20
-148.40000000000001
30
0
40
0.34999999999999998
210
0
220
0
230
1
0
CIRCLE
5
246
100
AcDbEntity
8
0
100
AcDbCircle
10
100.79500000000002
20
-148.40000000000001
30
0
40
0.34999999999999998
210
0
220
0
230
1
0
CIRCLE
5
247
100
AcDbEntity
8
0
100
AcDbCircle
10
117.30500000000001
20
-148.40000000000001
30
0
40
0.34999999999999998
210
0
220
0
230
1
0
CIRCLE
5
248
100
AcDbEntity
8
0
100
AcDbCircle
10
119.845
20
-148.40000000000001
30
0
40
0.34999999999999998
210
0
220
0
230
1
0
CIRCLE
5
249
100
AcDbEntity
8
0
100
AcDbCircle
10
128.09999999999999
20
-148.40000000000001
30
0
40
1.3999999999999999
210
0
220
0
230
1
0
CIRCLE
5
250
100
AcDbEntity
8
0
100
AcDbCircle
10
136.35500000000002
20
-148.40000000000001
30
0
40
0.34999999999999998
210
0
220
0
230
1
0
CIRCLE
5
251
100
AcDbEntity
8
0
100
AcDbCircle
10
138.89500000000001
20
-148.40000000000001
30
0
40
0.34999999999999998
210
0
220
0
230
1
0
CIRCLE
5
252
100
AcDbEntity
8
0
100
AcDbCircle
10
155.40500000000003
20
-148.40000000000001
30
0
40
0.34999999999999998
210
0
220
0
230
1
0
CIRCLE
5
253
100
AcDbEntity
8
0
100
AcDbCircle
10
157.94499999999999
20
-148.40000000000001
30
0
40
0.34999999999999998
210
0
220
0
230
1
0
CIRCLE
5
254
100
AcDbEntity
8
0
100
AcDbCircle
10
174.45500000000004
20
-148.40000000000001
30
0
40
0.34999999999999998
210
0
220
0
230
1
0
CIRCLE
5
255
100
AcDbEntity
8
0
100
AcDbCircle
10
176.995
20
-148.40000000000001
30
0
40
0.34999999999999998
210
0
220
0
230
1
0
CIRCLE
5
256
100
AcDbEntity
8
0
100
AcDbCircle
10
193.505
20
-148.40000000000001
30
0
40
0.34999999999999998
210
0
220
0
230
1
0
CIRCLE
5
257
100
AcDbEntity
8
0
100
AcDbCircle
10
196.04500000000002
20
-148.40000000000001
30
0
40
0.34999999999999998
210
0
220
0
230
1
0
CIRCLE
5
258
100
AcDbEntity
8
0
100
AcDbCircle
10
204.30000000000004
20
-148.40000000000001
30
0
40
1.3999999999999999
210
0
220
0
230
1
0
CIRCLE
5
259
100
AcDbEntity
8
0
100
AcDbCircle
10
212.55500000000001
20
-148.40000000000001
30
0
40
0.34999999999999998
210
0
220
0
230
1
0
CIRCLE
5
260
100
AcDbEntity
8
0
100
AcDbCircle
10
215.09500000000003
20
-148.40000000000001
30
0
40
0.34999999999999998
210
0
220
0
230
1
0
CIRCLE
5
261
100
AcDbEntity
8
0
100
AcDbCircle
10
60.155000000000001
20
-119.82500000000002
30
0
40
0.34999999999999998
210
0
220
0
230
1
0
CIRCLE
5
262
100
AcDbEntity
8
0
100
AcDbCircle
10
62.695000000000007
20
-119.82500000000002
30
0
40
0.34999999999999998
210
0
220
0
230
1
0
CIRCLE
5
263
100
AcDbEntity
8
0
100
AcDbCircle
10
80.474999999999994
20
-119.82500000000002
30
0
40
1.3999999999999999
210
0
220
0
230
1
0
CIRCLE
5
264
100
AcDbEntity
8
0
100
AcDbCircle
10
98.254999999999995
20
-119.82500000000002
30
0
40
0.34999999999999998
210
0
220
0
230
1
0
CIRCLE
5
265
100
AcDbEntity
8
0
100
AcDbCircle
10
100.79500000000002
20
-119.82500000000002
30
0
40
0.34999999999999998
210
0
220
0
230
1
0
CIRCLE
5
266
100
AcDbEntity
8
0
100
AcDbCircle
10
117.30500000000001
20
-119.82500000000002
30
0
40
0.34999999999999998
210
0
220
0
230
1
0
CIRCLE
5
267
100
AcDbEntity
8
0
100
AcDbCircle
10
119.845
20
-119.82500000000002
30
0
40
0.34999999999999998
210
0
220
0
230
1
0
CIRCLE
5
268
100
AcDbEntity
8
0
100
AcDbCircle
10
136.35500000000002
20
-119.82500000000002
30
0
40
0.34999999999999998
210
0
220
0
230
1
0
CIRCLE
5
269
100
AcDbEntity
8
0
100
AcDbCircle
10
138.89500000000001
20
-119.82500000000002
30
0
40
0.34999999999999998
210
0
220
0
230
1
0
CIRCLE
5
270
100
AcDbEntity
8
0
100
AcDbCircle
10
55.600000000000009
20
-92.234999999999999
30
0
40
1.3999999999999999
210
0
220
0
230
1
0
CIRCLE
5
271
100
AcDbEntity
8
0
100
AcDbCircle
10
147.15000000000001
20
-119.82500000000002
30
0
40
1.3999999999999999
210
0
220
0
230
1
0
CIRCLE
5
272
100
AcDbEntity
8
0
100
AcDbCircle
10
155.40500000000003
20
-119.82500000000002
30
0
40
0.34999999999999998
210
0
220
0
230
1
0
CIRCLE
5
273
100
AcDbEntity
8
0
100
AcDbCircle
10
157.94499999999999
20
-119.82500000000002
30
0
40
0.34999999999999998
210
0
220
0
230
1
0
CIRCLE
5
274
100
AcDbEntity
8
0
100
AcDbCircle
10
183.97999999999999
20
-119.82500000000002
30
0
40
0.34999999999999998
210
0
220
0
230
1
0
CIRCLE
5
275
100
AcDbEntity
8
0
100
AcDbCircle
10
186.52000000000001
20
-119.82500000000002
30
0
40
0.34999999999999998
210
0
220
0
230
1
0
CIRCLE
5
276
100
AcDbEntity
8
0
100
AcDbCircle
10
194.77500000000003
20
-119.82500000000002
30
0
40
1.3999999999999999
210
0
220
0
230
1
0
CIRCLE
5
277
100
AcDbEntity
8
0
100
AcDbCircle
10
203.03
20
-119.82500000000002
30
0
40
0.34999999999999998
210
0
220
0
230
1
0
CIRCLE
5
278
100
AcDbEntity
8
0
100
AcDbCircle
10
205.57000000000002
20
-119.82500000000002
30
0
40
0.34999999999999998
210
0
220
0
230
1
0
CIRCLE
5
279
100
AcDbEntity
8
0
100
AcDbCircle
10
222.08000000000001
20
-119.82500000000002
30
0
40
0.34999999999999998
210
0
220
0
230
1
0
CIRCLE
5
280
100
AcDbEntity
8
0
100
AcDbCircle
10
224.62000000000003
20
-119.82500000000002
30
0
40
0.34999999999999998
210
0
220
0
230
1
0
CIRCLE
5
281
100
AcDbEntity
8
0
100
AcDbCircle
10
143.5
20
-100.325
30
0
40
0.40000000000000008
210
0
220
0
230
1
0
CIRCLE
5
282
100
AcDbEntity
8
0
100
AcDbCircle
10
147.19999999999999
20
-100.325
30
0
40
0.40000000000000008
210
0
220
0
230
1
0
CIRCLE
5
283
100
AcDbEntity
8
0
100
AcDbCircle
10
143.5
20
-97.785000000000011
30
0
40
0.40000000000000008
210
0
220
0
230
1
0
CIRCLE
5
284
100
AcDbEntity
8
0
100
AcDbCircle
10
147.19999999999999
20
-97.785000000000011
30
0
40
0.40000000000000008
210
0
220
0
230
1
0
CIRCLE
5
285
100
AcDbEntity
8
0
100
AcDbCircle
10
143.5
20
-95.245000000000019
30
0
40
0.40000000000000008
210
0
220
0
230
1
0
CIRCLE
5
286
100
AcDbEntity
8
0
100
AcDbCircle
10
147.19999999999999
20
-95.245000000000019
30
0
40
0.40000000000000008
210
0
220
0
230
1
0
CIRCLE
5
287
100
AcDbEntity
8
0
100
AcDbCircle
10
177.25
20
-102.32500000000002
30
0
40
0.40000000000000008
210
0
220
0
230
1
0
CIRCLE
5
288
100
AcDbEntity
8
0
100
AcDbCircle
10
180.69
20
-102.32500000000002
30
0
40
0.40000000000000008
210
0
220
0
230
1
0
CIRCLE
5
289
100
AcDbEntity
8
0
100
AcDbCircle
10
177.25
20
-99.784999999999997
30
0
40
0.40000000000000008
210
0
220
0
230
1
0
CIRCLE
5
290
100
AcDbEntity
8
0
100
AcDbCircle
10
180.69
20
-99.784999999999997
30
0
40
0.40000000000000008
210
0
220
0
230
1
0
CIRCLE
5
291
100
AcDbEntity
8
0
100
AcDbCircle
10
177.25
20
-97.245000000000005
30
0
40
0.40000000000000008
210
0
220
0
230
1
0
CIRCLE
5
292
100
AcDbEntity
8
0
100
AcDbCircle
10
180.69
20
-97.245000000000005
30
0
40
0.40000000000000008
210
0
220
0
230
1
0
CIRCLE
5
293
100
AcDbEntity
8
0
100
AcDbCircle
10
177.25
20
-94.704999999999998
30
0
40
0.40000000000000008
210
0
220
0
230
1
0
CIRCLE
5
294
100
AcDbEntity
8
0
100
AcDbCircle
10
180.69
20
-94.704999999999998
30
0
40
0.40000000000000008
210
0
220
0
230
1
0
CIRCLE
5
295
100
AcDbEntity
8
0
100
AcDbCircle
10
143.5
20
-92.704999999999998
30
0
40
0.40000000000000008
210
0
220
0
230
1
0
CIRCLE
5
296
100
AcDbEntity
8
0
100
AcDbCircle
10
147.19999999999999
20
-92.704999999999998
30
0
40
0.40000000000000008
210
0
220
0
230
1
0
CIRCLE
5
297
100
AcDbEntity
8
0
100
AcDbCircle
10
143.5
20
-90.165000000000006
30
0
40
0.40000000000000008
210
0
220
0
230
1
0
CIRCLE
5
298
100
AcDbEntity
8
0
100
AcDbCircle
10
147.19999999999999
20
-90.165000000000006
30
0
40
0.40000000000000008
210
0
220
0
230
1
0
CIRCLE
5
299
100
AcDbEntity
8
0
100
AcDbCircle
10
177.25
20
-92.16500000000002
30
0
40
0.40000000000000008
210
0
220
0
230
1
0
CIRCLE
5
300
100
AcDbEntity
8
0
100
AcDbCircle
10
180.69
20
-92.16500000000002
30
0
40
0.40000000000000008
210
0
220
0
230
1
0
CIRCLE
5
301
100
AcDbEntity
8
0
100
AcDbCircle
10
231.60499999999999
20
-148.40000000000001
30
0
40
0.34999999999999998
210
0
220
0
230
1
0
CIRCLE
5
302
100
AcDbEntity
8
0
100
AcDbCircle
10
234.14500000000004
20
-148.40000000000001
30
0
40
0.34999999999999998
210
0
220
0
230
1
0
CIRCLE
5
303
100
AcDbEntity
8
0
100
AcDbCircle
10
250.655
20
-148.40000000000001
30
0
40
0.34999999999999998
210
0
220
0
230
1
0
CIRCLE
5
304
100
AcDbEntity
8
0
100
AcDbCircle
10
253.19500000000002
20
-148.40000000000001
30
0
40
0.34999999999999998
210
0
220
0
230
1
0
CIRCLE
5
305
100
AcDbEntity
8
0
100
AcDbCircle
10
269.70500000000004
20
-148.40000000000001
30
0
40
0.34999999999999998
210
0
220
0
230
1
0
CIRCLE
5
306
100
AcDbEntity
8
0
100
AcDbCircle
10
272.245
20
-148.40000000000001
30
0
40
0.34999999999999998
210
0
220
0
230
1
0
CIRCLE
5
307
100
AcDbEntity
8
0
100
AcDbCircle
10
280.5
20
-148.40000000000001
30
0
40
1.3999999999999999
210
0
220
0
230
1
0
CIRCLE
5
308
100
AcDbEntity
8
0
100
AcDbCircle
10
288.755
20
-148.40000000000001
30
0
40
0.34999999999999998
210
0
220
0
230
1
0
CIRCLE
5
309
100
AcDbEntity
8
0
100
AcDbCircle
10
291.29500000000002
20
-148.40000000000001
30
0
40
0.34999999999999998
210
0
220
0
230
1
0
CIRCLE
5
310
100
AcDbEntity
8
0
100
AcDbCircle
10
317.39999999999998
20
-148.40000000000001
30
0
40
0.34999999999999998
210
0
220
0
230
1
0
CIRCLE
5
311
100
AcDbEntity
8
0
100
AcDbCircle
10
319.80000000000007
20
-148.40000000000001
30
0
40
0.34999999999999998
210
0
220
0
230
1
0
CIRCLE
5
312
100
AcDbEntity
8
0
100
AcDbCircle
10
355.43000000000001
20
-148.40000000000001
30
0
40
0.34999999999999998
210
0
220
0
230
1
0
CIRCLE
5
313
100
AcDbEntity
8
0
100
AcDbCircle
10
357.97000000000003
20
-148.40000000000001
30
0
40
0.34999999999999998
210
0
220
0
230
1
0
CIRCLE
5
314
100
AcDbEntity
8
0
100
AcDbCircle
10
366.22500000000002
20
-148.40000000000001
30
0
40
1.3999999999999999
210
0
220
0
230
1
0
CIRCLE
5
315
100
AcDbEntity
8
0
100
AcDbCircle
10
374.48000000000002
20
-148.40000000000001
30
0
40
0.34999999999999998
210
0
220
0
230
1
0
CIRCLE
5
316
100
AcDbEntity
8
0
100
AcDbCircle
10
377.01999999999998
20
-148.40000000000001
30
0
40
0.34999999999999998
210
0
220
0
230
1
0
CIRCLE
5
317
100
AcDbEntity
8
0
100
AcDbCircle
10
393.53000000000003
20
-148.40000000000001
30
0
40
0.34999999999999998
210
0
220
0
230
1
0
CIRCLE
5
318
100
AcDbEntity
8
0
100
AcDbCircle
10
396.06999999999999
20
-148.40000000000001
30
0
40
0.34999999999999998
210
0
220
0
230
1
0
CIRCLE
5
319
100
AcDbEntity
8
0
100
AcDbCircle
10
394.80000000000007
20
-134.09500000000003
30
0
40
1.3999999999999999
210
0
220
0
230
1
0
CIRCLE
5
320
100
AcDbEntity
8
0
100
AcDbCircle
10
241.13
20
-119.82500000000002
30
0
40
0.34999999999999998
210
0
220
0
230
1
0
CIRCLE
5
321
100
AcDbEntity
8
0
100
AcDbCircle
10
243.67000000000002
20
-119.82500000000002
30
0
40
0.34999999999999998
210
0
220
0
230
1
0
CIRCLE
5
322
100
AcDbEntity
8
0
100
AcDbCircle
10
256.6875
20
-119.82500000000002
30
0
40
1.3999999999999999
210
0
220
0
230
1
0
CIRCLE
5
323
100
AcDbEntity
8
0
100
AcDbCircle
10
269.70500000000004
20
-119.82500000000002
30
0
40
0.34999999999999998
210
0
220
0
230
1
0
CIRCLE
5
324
100
AcDbEntity
8
0
100
AcDbCircle
10
272.245
20
-119.82500000000002
30
0
40
0.34999999999999998
210
0
220
0
230
1
0
CIRCLE
5
325
100
AcDbEntity
8
0
100
AcDbCircle
10
288.755
20
-119.82500000000002
30
0
40
0.34999999999999998
210
0
220
0
230
1
0
CIRCLE
5
326
100
AcDbEntity
8
0
100
AcDbCircle
10
291.29500000000002
20
-119.82500000000002
30
0
40
0.34999999999999998
210
0
220
0
230
1
0
CIRCLE
5
327
100
AcDbEntity
8
0
100
AcDbCircle
10
307.80500000000006
20
-119.82500000000002
30
0
40
0.34999999999999998
210
0
220
0
230
1
0
CIRCLE
5
328
100
AcDbEntity
8
0
100
AcDbCircle
10
310.34500000000003
20
-119.82500000000002
30
0
40
0.34999999999999998
210
0
220
0
230
1
0
CIRCLE
5
329
100
AcDbEntity
8
0
100
AcDbCircle
10
314.38
20
-103.16000000000001
30
0
40
1
210
0
220
0
230
1
0
CIRCLE
5
330
100
AcDbEntity
8
0
100
AcDbCircle
10
307.86000000000001
20
-97.047000000000011
30
0
40
0.47499999999999998
210
0
220
0
230
1
0
CIRCLE
5
331
100
AcDbEntity
8
0
100
AcDbCircle
10
314.298
20
-96.187000000000012
30
0
40
0.32500000000000001
210
0
220
0
230
1
0
CIRCLE
5
332
100
AcDbEntity
8
0
100
AcDbCircle
10
307.86000000000001
20
-94.547000000000011
30
0
40
0.47499999999999998
210
0
220
0
230
1
0
CIRCLE
5
333
100
AcDbEntity
8
0
100
AcDbCircle
10
292.38
20
-88.205000000000013
30
0
40
0.5
210
0
220
0
230
1
0
CIRCLE
5
334
100
AcDbEntity
8
0
100
AcDbCircle
10
292.38
20
-85.66500000000002
30
0
40
0.5
210
0
220
0
230
1
0
CIRCLE
5
335
100
AcDbEntity
8
0
100
AcDbCircle
10
307.86000000000001
20
-92.047000000000011
30
0
40
0.47499999999999998
210
0
220
0
230
1
0
CIRCLE
5
336
100
AcDbEntity
8
0
100
AcDbCircle
10
314.298
20
-90.406999999999996
30
0
40
0.32500000000000001
210
0
220
0
230
1
0
CIRCLE
5
337
100
AcDbEntity
8
0
100
AcDbCircle
10
294.92000000000007
20
-88.205000000000013
30
0
40
0.5
210
0
220
0
230
1
0
CIRCLE
5
338
100
AcDbEntity
8
0
100
AcDbCircle
10
297.45999999999998
20
-88.205000000000013
30
0
40
0.5
210
0
220
0
230
1
0
CIRCLE
5
339
100
AcDbEntity
8
0
100
AcDbCircle
10
294.92000000000007
20
-85.66500000000002
30
0
40
0.5
210
0
220
0
230
1
0
CIRCLE
5
340
100
AcDbEntity
8
0
100
AcDbCircle
10
297.45999999999998
20
-85.66500000000002
30
0
40
0.5
210
0
220
0
230
1
0
CIRCLE
5
341
100
AcDbEntity
8
0
100
AcDbCircle
10
307.86000000000001
20
-89.547000000000011
30
0
40
0.47499999999999998
210
0
220
0
230
1
0
CIRCLE
5
342
100
AcDbEntity
8
0
100
AcDbCircle
10
318.60000000000002
20
-119.82500000000002
30
0
40
1.3999999999999999
210
0
220
0
230
1
0
CIRCLE
5
343
100
AcDbEntity
8
0
100
AcDbCircle
10
326.85500000000002
20
-119.82500000000002
30
0
40
0.34999999999999998
210
0
220
0
230
1
0
CIRCLE
5
344
100
AcDbEntity
8
0
100
AcDbCircle
10
329.39500000000004
20
-119.82500000000002
30
0
40
0.34999999999999998
210
0
220
0
230
1
0
CIRCLE
5
345
100
AcDbEntity
8
0
100
AcDbCircle
10
342.41250000000002
20
-119.82500000000002
30
0
40
1.3999999999999999
210
0
220
0
230
1
0
CIRCLE
5
346
100
AcDbEntity
8
0
100
AcDbCircle
10
355.43000000000001
20
-119.82500000000002
30
0
40
0.34999999999999998
210
0
220
0
230
1
0
CIRCLE
5
347
100
AcDbEntity
8
0
100
AcDbCircle
10
357.97000000000003
20
-119.82500000000002
30
0
40
0.34999999999999998
210
0
220
0
230
1
0
CIRCLE
5
348
100
AcDbEntity
8
0
100
AcDbCircle
10
366.22500000000002
20
-119.82500000000002
30
0
40
1.3999999999999999
210
0
220
0
230
1
0
CIRCLE
5
349
100
AcDbEntity
8
0
100
AcDbCircle
10
374.48000000000002
20
-119.82500000000002
30
0
40
0.34999999999999998
210
0
220
0
230
1
0
CIRCLE
5
350
100
AcDbEntity
8
0
100
AcDbCircle
10
377.01999999999998
20
-119.82500000000002
30
0
40
0.34999999999999998
210
0
220
0
230
1
0
CIRCLE
5
351
100
AcDbEntity
8
0
100
AcDbCircle
10
381.88
20
-112.77500000000002
30
0
40
0.45000000000000007
210
0
220
0
230
1
0
CIRCLE
5
352
100
AcDbEntity
8
0
100
AcDbCircle
10
393.53000000000003
20
-119.82500000000002
30
0
40
0.34999999999999998
210
0
220
0
230
1
0
CIRCLE
5
353
100
AcDbEntity
8
0
100
AcDbCircle
10
396.06999999999999
20
-119.82500000000002
30
0
40
0.34999999999999998
210
0
220
0
230
1
0
CIRCLE
5
354
100
AcDbEntity
8
0
100
AcDbCircle
10
384.42000000000007
20
-112.77500000000002
30
0
40
0.45000000000000007
210
0
220
0
230
1
0
CIRCLE
5
355
100
AcDbEntity
8
0
100
AcDbCircle
10
400.88
20
-112.77500000000002
30
0
40
0.45000000000000007
210
0
220
0
230
1
0
CIRCLE
5
356
100
AcDbEntity
8
0
100
AcDbCircle
10
403.42000000000007
20
-112.77500000000002
30
0
40
0.45000000000000007
210
0
220
0
230
1
0
CIRCLE
5
357
100
AcDbEntity
8
0
100
AcDbCircle
10
377.81
20
-94.635000000000019
30
0
40
0.37500000000000006
210
0
220
0
230
1
0
CIRCLE
5
358
100
AcDbEntity
8
0
100
AcDbCircle
10
377.81
20
-92.635000000000005
30
0
40
0.37500000000000006
210
0
220
0
230
1
0
CIRCLE
5
359
100
AcDbEntity
8
0
100
AcDbCircle
10
377.81
20
-90.635000000000019
30
0
40
0.37500000000000006
210
0
220
0
230
1
0
CIRCLE
5
360
100
AcDbEntity
8
0
100
AcDbCircle
10
377.81
20
-88.635000000000005
30
0
40
0.37500000000000006
210
0
220
0
230
1
0
CIRCLE
5
361
100
AcDbEntity
8
0
100
AcDbCircle
10
392.17600000000004
20
-89.500000000000014
30
0
40
1.6500000000000001
210
0
220
0
230
1
0
CIRCLE
5
362
100
AcDbEntity
8
0
100
AcDbCircle
10
399.79000000000008
20
-87.105000000000018
30
0
40
1.3999999999999999
210
0
220
0
230
1
0
ENDSEC
0
SECTION
2
OBJECTS
0
DICTIONARY
5
C
100
AcDbDictionary
3
ACAD_GROUP
350
D
3
ACAD_MLINESTYLE
350
17
0
DICTIONARY
5
D
100
AcDbDictionary
0
DICTIONARY
5
1A
330
C
100
AcDbDictionary
0
DICTIONARY
5
17
100
AcDbDictionary
0
ENDSEC
0
EOF
